<svg width="192" height="75" viewBox="0 0 192 75" fill="none" xmlns="http://www.w3.org/2000/svg">
<path d="M41.6875 35.25V37.2812C41.6875 40.7396 41.2083 43.8438 40.25 46.5938C39.3125 49.3438 37.9688 51.6875 36.2188 53.625C34.4896 55.5625 32.4271 57.0521 30.0312 58.0938C27.6562 59.1146 25.0208 59.625 22.125 59.625C19.2292 59.625 16.5833 59.1146 14.1875 58.0938C11.7917 57.0521 9.70833 55.5625 7.9375 53.625C6.1875 51.6875 4.83333 49.3438 3.875 46.5938C2.91667 43.8438 2.4375 40.7396 2.4375 37.2812V35.25C2.4375 31.7917 2.91667 28.6875 3.875 25.9375C4.83333 23.1667 6.17708 20.8125 7.90625 18.875C9.65625 16.9375 11.7292 15.4583 14.125 14.4375C16.5208 13.3958 19.1667 12.875 22.0625 12.875C24.9583 12.875 27.6042 13.3958 30 14.4375C32.3958 15.4583 34.4583 16.9375 36.1875 18.875C37.9375 20.8125 39.2917 23.1667 40.25 25.9375C41.2083 28.6875 41.6875 31.7917 41.6875 35.25ZM31.4062 37.2812V35.1875C31.4062 32.875 31.1979 30.8333 30.7812 29.0625C30.3646 27.2708 29.7604 25.7708 28.9688 24.5625C28.1771 23.3542 27.1979 22.4479 26.0312 21.8438C24.8646 21.2188 23.5417 20.9062 22.0625 20.9062C20.5208 20.9062 19.1771 21.2188 18.0312 21.8438C16.8854 22.4479 15.9167 23.3542 15.125 24.5625C14.3542 25.7708 13.7604 27.2708 13.3438 29.0625C12.9479 30.8333 12.75 32.875 12.75 35.1875V37.2812C12.75 39.5729 12.9479 41.6146 13.3438 43.4062C13.7604 45.1771 14.3646 46.6771 15.1562 47.9062C15.9479 49.1354 16.9167 50.0625 18.0625 50.6875C19.2292 51.3125 20.5833 51.625 22.125 51.625C23.6042 51.625 24.9167 51.3125 26.0625 50.6875C27.2292 50.0625 28.2083 49.1354 29 47.9062C29.7917 46.6771 30.3854 45.1771 30.7812 43.4062C31.1979 41.6146 31.4062 39.5729 31.4062 37.2812ZM65.3438 50.9375V36.4375C65.3438 35.4167 65.1875 34.5417 64.875 33.8125C64.5625 33.0833 64.0729 32.5104 63.4062 32.0938C62.7396 31.6771 61.875 31.4688 60.8125 31.4688C59.9167 31.4688 59.1354 31.625 58.4688 31.9375C57.8229 32.25 57.3229 32.6979 56.9688 33.2812C56.6354 33.8646 56.4688 34.5833 56.4688 35.4375H46.7188C46.7188 33.9167 47.0625 32.5 47.75 31.1875C48.4375 29.875 49.4167 28.7188 50.6875 27.7188C51.9792 26.7188 53.5208 25.9479 55.3125 25.4062C57.1042 24.8438 59.1146 24.5625 61.3438 24.5625C63.9896 24.5625 66.3438 25.0104 68.4062 25.9062C70.4896 26.7812 72.1354 28.1042 73.3438 29.875C74.5521 31.625 75.1562 33.8333 75.1562 36.5V50.6562C75.1562 52.6979 75.2708 54.3021 75.5 55.4688C75.75 56.6146 76.1042 57.6146 76.5625 58.4688V59H66.7188C66.2604 58.0208 65.9167 56.8125 65.6875 55.375C65.4583 53.9167 65.3438 52.4375 65.3438 50.9375ZM66.5625 38.375L66.625 43.75H61.7812C60.6979 43.75 59.7604 43.8854 58.9688 44.1562C58.1979 44.4271 57.5729 44.8021 57.0938 45.2812C56.6146 45.7396 56.2604 46.2812 56.0312 46.9062C55.8229 47.5104 55.7188 48.1771 55.7188 48.9062C55.7188 49.5938 55.8854 50.2188 56.2188 50.7812C56.5521 51.3229 57.0104 51.75 57.5938 52.0625C58.1771 52.375 58.8542 52.5312 59.625 52.5312C60.8958 52.5312 61.9792 52.2812 62.875 51.7812C63.7917 51.2812 64.5 50.6771 65 49.9688C65.5 49.2396 65.75 48.5625 65.75 47.9375L68.0938 52C67.7188 52.8333 67.2604 53.6979 66.7188 54.5938C66.1771 55.4688 65.4896 56.2917 64.6562 57.0625C63.8229 57.8125 62.8125 58.4271 61.625 58.9062C60.4583 59.3854 59.0521 59.625 57.4062 59.625C55.2812 59.625 53.3542 59.1979 51.625 58.3438C49.8958 57.4688 48.5104 56.2708 47.4688 54.75C46.4479 53.2292 45.9375 51.4792 45.9375 49.5C45.9375 47.7292 46.2604 46.1562 46.9062 44.7812C47.5521 43.4062 48.5208 42.2396 49.8125 41.2812C51.125 40.3229 52.7708 39.6042 54.75 39.125C56.7292 38.625 59.0417 38.375 61.6875 38.375H66.5625ZM99.5625 49.5938C99.5625 48.9688 99.3646 48.4167 98.9688 47.9375C98.5938 47.4583 97.9062 47.0208 96.9062 46.625C95.9271 46.2292 94.5417 45.8333 92.75 45.4375C91.0625 45.0833 89.4896 44.625 88.0312 44.0625C86.5729 43.4792 85.3021 42.7812 84.2188 41.9688C83.1354 41.1354 82.2917 40.1562 81.6875 39.0312C81.0833 37.8854 80.7812 36.5833 80.7812 35.125C80.7812 33.7083 81.0833 32.3646 81.6875 31.0938C82.3125 29.8229 83.2083 28.6979 84.375 27.7188C85.5625 26.7396 87 25.9688 88.6875 25.4062C90.3958 24.8438 92.3333 24.5625 94.5 24.5625C97.4792 24.5625 100.052 25.0312 102.219 25.9688C104.385 26.8854 106.052 28.1771 107.219 29.8438C108.385 31.4896 108.969 33.375 108.969 35.5H99.2188C99.2188 34.625 99.0521 33.8646 98.7188 33.2188C98.3854 32.5729 97.875 32.0729 97.1875 31.7188C96.5 31.3438 95.5938 31.1562 94.4688 31.1562C93.5938 31.1562 92.8229 31.3125 92.1562 31.625C91.5104 31.9167 91 32.3229 90.625 32.8438C90.2708 33.3646 90.0938 33.9688 90.0938 34.6562C90.0938 35.1354 90.1979 35.5729 90.4062 35.9688C90.6354 36.3438 90.9792 36.6979 91.4375 37.0312C91.9167 37.3438 92.5312 37.625 93.2812 37.875C94.0521 38.125 94.9896 38.3646 96.0938 38.5938C98.4479 39.0312 100.594 39.6458 102.531 40.4375C104.49 41.2292 106.052 42.3229 107.219 43.7188C108.406 45.1146 109 46.9583 109 49.25C109 50.75 108.656 52.125 107.969 53.375C107.302 54.625 106.333 55.7188 105.062 56.6562C103.792 57.5938 102.271 58.3229 100.5 58.8438C98.7292 59.3646 96.7292 59.625 94.5 59.625C91.3125 59.625 88.6146 59.0521 86.4062 57.9062C84.1979 56.7604 82.5312 55.3229 81.4062 53.5938C80.3021 51.8438 79.75 50.0521 79.75 48.2188H88.9062C88.9479 49.3438 89.2292 50.2604 89.75 50.9688C90.2917 51.6771 90.9896 52.1979 91.8438 52.5312C92.6979 52.8438 93.6562 53 94.7188 53C95.7812 53 96.6667 52.8542 97.375 52.5625C98.0833 52.2708 98.625 51.875 99 51.375C99.375 50.8542 99.5625 50.2604 99.5625 49.5938ZM124.719 25.1875V59H114.938V25.1875H124.719ZM114.344 16.4375C114.344 15.0208 114.844 13.8646 115.844 12.9688C116.844 12.0521 118.156 11.5938 119.781 11.5938C121.406 11.5938 122.719 12.0521 123.719 12.9688C124.74 13.8646 125.25 15.0208 125.25 16.4375C125.25 17.8333 124.74 18.9896 123.719 19.9062C122.719 20.8021 121.406 21.25 119.781 21.25C118.156 21.25 116.844 20.8021 115.844 19.9062C114.844 18.9896 114.344 17.8333 114.344 16.4375ZM149.75 49.5938C149.75 48.9688 149.552 48.4167 149.156 47.9375C148.781 47.4583 148.094 47.0208 147.094 46.625C146.115 46.2292 144.729 45.8333 142.938 45.4375C141.25 45.0833 139.677 44.625 138.219 44.0625C136.76 43.4792 135.49 42.7812 134.406 41.9688C133.323 41.1354 132.479 40.1562 131.875 39.0312C131.271 37.8854 130.969 36.5833 130.969 35.125C130.969 33.7083 131.271 32.3646 131.875 31.0938C132.5 29.8229 133.396 28.6979 134.562 27.7188C135.75 26.7396 137.188 25.9688 138.875 25.4062C140.583 24.8438 142.521 24.5625 144.688 24.5625C147.667 24.5625 150.24 25.0312 152.406 25.9688C154.573 26.8854 156.24 28.1771 157.406 29.8438C158.573 31.4896 159.156 33.375 159.156 35.5H149.406C149.406 34.625 149.24 33.8646 148.906 33.2188C148.573 32.5729 148.062 32.0729 147.375 31.7188C146.688 31.3438 145.781 31.1562 144.656 31.1562C143.781 31.1562 143.01 31.3125 142.344 31.625C141.698 31.9167 141.188 32.3229 140.812 32.8438C140.458 33.3646 140.281 33.9688 140.281 34.6562C140.281 35.1354 140.385 35.5729 140.594 35.9688C140.823 36.3438 141.167 36.6979 141.625 37.0312C142.104 37.3438 142.719 37.625 143.469 37.875C144.24 38.125 145.177 38.3646 146.281 38.5938C148.635 39.0312 150.781 39.6458 152.719 40.4375C154.677 41.2292 156.24 42.3229 157.406 43.7188C158.594 45.1146 159.188 46.9583 159.188 49.25C159.188 50.75 158.844 52.125 158.156 53.375C157.49 54.625 156.521 55.7188 155.25 56.6562C153.979 57.5938 152.458 58.3229 150.688 58.8438C148.917 59.3646 146.917 59.625 144.688 59.625C141.5 59.625 138.802 59.0521 136.594 57.9062C134.385 56.7604 132.719 55.3229 131.594 53.5938C130.49 51.8438 129.938 50.0521 129.938 48.2188H139.094C139.135 49.3438 139.417 50.2604 139.938 50.9688C140.479 51.6771 141.177 52.1979 142.031 52.5312C142.885 52.8438 143.844 53 144.906 53C145.969 53 146.854 52.8542 147.562 52.5625C148.271 52.2708 148.812 51.875 149.188 51.375C149.562 50.8542 149.75 50.2604 149.75 49.5938Z" fill="black"/>
<rect x="171" y="24" width="21" height="35" fill="#42D674"/>
</svg>
